{"glyphs":{":":{"x_min":0,"x_max":272,"ha":272,"o":"m 83 365 l 120 403 q 123 406 126 408 q 129 409 133 409 q 136 409 140 407 q 145 405 147 402 l 183 363 q 185 361 187 357 q 188 354 188 350 q 188 346 187 343 q 185 339 182 336 l 146 296 q 143 292 139 290 q 136 288 133 288 q 129 288 126 290 q 123 291 120 294 l 80 339 q 78 341 77 344 q 76 347 76 351 q 76 354 78 358 q 80 362 83 365 z m 75 84 l 115 124 q 120 127 123 129 q 127 131 130 131 q 133 131 136 129 q 140 127 144 123 l 184 82 q 186 80 188 76 q 189 73 189 69 q 189 66 188 63 q 187 61 182 55 l 143 13 q 139 9 135 6 q 131 4 129 4 q 125 4 122 5 q 118 7 115 10 l 72 58 q 69 61 68 63 q 67 66 67 70 q 67 73 69 76 q 71 80 75 84 z"},"$":{"x_min":0,"x_max":495,"ha":495,"o":"m 256 333 l 256 34 q 319 44 354 85 q 389 125 389 187 q 389 240 357 275 q 324 311 256 333 z m 220 430 l 220 671 q 168 665 137 632 q 105 599 105 552 q 105 507 133 477 q 161 447 220 430 z m 220 -3 q 141 1 89 30 q 37 60 37 97 q 37 126 43 146 q 48 167 56 167 q 62 167 72 145 q 81 123 91 108 q 116 71 148 53 q 180 35 220 33 l 220 347 q 135 373 97 414 q 59 455 59 518 q 59 588 104 638 q 148 688 220 698 l 220 758 l 256 758 l 256 700 q 316 696 360 669 q 404 643 404 614 q 404 590 396 573 q 389 556 381 556 q 370 556 360 582 q 353 602 346 613 q 331 639 308 653 q 286 667 256 670 l 256 420 q 353 393 397 343 q 441 293 441 213 q 441 132 392 75 q 342 18 256 0 l 256 -125 l 220 -125 z"},"?":{"x_min":0,"x_max":365,"ha":365,"o":"m 105 83 l 145 124 q 148 127 152 129 q 156 131 160 131 q 163 131 166 129 q 169 127 174 123 l 214 81 q 217 77 218 74 q 219 71 219 67 q 219 64 218 60 q 216 57 212 52 l 173 9 q 168 4 165 1 q 161 -1 159 -1 q 155 -1 152 0 q 149 2 145 6 l 102 55 q 100 58 98 61 q 97 64 97 68 q 97 71 99 74 q 101 78 105 83 z m 165 199 q 157 199 150 221 q 144 243 144 276 q 144 325 184 413 l 187 420 q 189 424 193 432 q 228 507 228 554 q 228 591 208 612 q 189 633 155 633 q 133 633 115 622 q 96 611 94 611 q 90 611 87 614 q 84 616 84 619 q 84 633 115 652 q 146 672 181 672 q 236 672 269 641 q 302 611 302 560 q 302 529 288 497 q 275 465 237 414 q 200 363 185 330 q 170 296 170 266 q 170 242 175 218 q 176 212 176 211 q 176 206 173 202 q 170 199 165 199 z"},"<":{"x_min":0,"x_max":833,"ha":833,"o":"m 704 554 l 704 501 l 205 298 l 704 96 l 704 43 l 129 278 l 129 318 z"},"'":{"x_min":0,"x_max":169,"ha":169,"o":"m 92 424 l 77 424 l 47 646 q 47 647 47 648 q 45 660 45 666 q 45 689 55 701 q 65 714 84 714 q 103 714 113 702 q 123 690 123 667 q 123 659 123 655 q 123 650 122 646 z"},"=":{"x_min":0,"x_max":833,"ha":833,"o":"m 124 231 l 709 231 l 709 183 l 124 183 z m 124 413 l 709 413 l 709 365 l 124 365 z"},"a":{"x_min":0,"x_max":450,"ha":450,"o":"m 298 218 q 192 196 151 168 q 111 141 111 95 q 111 60 130 40 q 150 20 185 20 q 233 20 266 45 q 298 70 298 109 z m 304 49 q 271 18 231 3 q 192 -12 144 -12 q 97 -12 72 12 q 47 37 47 84 q 47 144 102 179 q 157 214 298 240 l 298 309 q 298 354 270 379 q 242 403 190 403 q 146 403 127 390 q 109 377 109 347 q 109 334 113 318 q 116 301 116 298 q 116 291 110 287 q 103 282 93 282 q 73 282 60 293 q 46 303 46 319 q 46 361 93 396 q 140 431 204 431 q 293 431 330 397 q 367 364 367 278 l 367 94 q 367 53 375 41 q 383 29 406 29 q 410 29 417 29 q 423 30 426 30 q 429 30 432 27 q 435 23 435 19 q 435 9 419 2 q 402 -5 377 -5 q 350 -5 332 9 q 314 22 304 49 z"},"L":{"x_min":0,"x_max":551,"ha":551,"o":"m 116 134 l 116 567 q 116 612 110 628 q 103 644 87 657 q 80 663 71 667 q 62 670 52 671 q 51 671 49 672 q 34 676 34 685 q 34 694 38 697 q 42 700 53 700 q 58 700 90 697 q 122 694 148 694 q 194 694 241 699 q 250 700 251 700 q 258 700 261 697 q 265 693 265 687 q 265 676 244 669 l 243 669 q 241 668 237 667 q 222 661 216 655 q 203 644 198 626 q 193 609 193 567 l 193 102 q 193 65 209 52 q 225 39 271 39 q 333 39 389 52 q 446 65 480 86 q 500 99 518 121 q 535 143 541 143 q 545 143 547 138 q 550 134 550 126 q 550 112 540 88 q 531 64 516 45 q 496 19 470 8 q 444 -4 405 -4 q 393 -4 331 -1 q 269 2 220 2 q 139 2 67 -3 q 58 -4 56 -4 q 52 -4 49 0 q 46 3 46 8 q 46 14 50 18 q 53 22 65 28 q 66 29 68 29 q 84 38 92 46 q 105 60 111 78 q 116 96 116 134 z"},"3":{"x_min":0,"x_max":495,"ha":495,"o":"m 269 417 q 338 414 377 371 q 417 328 417 256 q 417 145 343 66 q 268 -12 163 -12 q 109 -12 65 10 q 20 32 20 53 q 20 56 23 59 q 27 62 31 62 q 34 62 47 53 q 101 16 153 16 q 230 16 284 76 q 337 136 337 224 q 337 292 302 331 q 268 371 209 371 q 205 371 194 370 q 183 369 176 369 q 170 369 167 372 q 163 375 163 378 q 163 386 184 396 q 204 406 217 415 q 265 449 286 481 q 306 514 306 555 q 306 598 280 623 q 254 648 211 648 q 162 648 110 605 q 96 593 92 593 q 87 593 84 595 q 81 597 81 600 q 81 609 94 624 q 106 638 130 657 q 159 679 188 690 q 218 700 251 700 q 309 700 344 667 q 379 633 379 578 q 379 537 350 494 q 321 452 269 417 z"},";":{"x_min":0,"x_max":272,"ha":272,"o":"m 85 365 l 121 402 q 125 405 128 407 q 132 409 135 409 q 139 409 142 407 q 146 405 148 402 l 184 363 q 187 359 188 356 q 189 353 189 350 q 189 347 188 344 q 186 340 183 337 l 147 297 q 143 292 140 290 q 136 288 134 288 q 130 288 127 290 q 124 291 121 294 l 82 339 q 80 341 79 344 q 78 347 78 351 q 78 354 80 358 q 82 362 85 365 z m 79 78 l 119 120 q 122 123 126 125 q 129 126 134 126 q 156 126 177 94 q 198 62 198 20 q 198 -11 188 -41 q 177 -71 157 -98 q 139 -122 123 -135 q 107 -148 97 -148 q 92 -148 89 -146 q 87 -144 87 -140 q 87 -136 99 -124 q 138 -83 138 -34 q 138 -14 131 1 q 125 17 109 31 q 104 36 93 44 q 75 58 75 65 q 75 70 76 73 q 77 76 79 78 z"},"J":{"x_min":0,"x_max":321,"ha":321,"o":"m 130 2 l 130 567 q 130 608 123 626 q 117 645 100 657 q 88 666 63 670 q 62 670 62 670 q 47 672 42 676 q 38 680 38 687 q 38 694 42 697 q 47 700 58 700 q 62 700 95 697 q 129 694 158 694 q 195 694 237 699 q 249 700 252 700 q 259 700 263 697 q 267 693 267 688 q 267 677 249 668 l 248 668 q 247 667 244 666 q 231 659 225 652 q 216 642 213 627 q 209 612 209 579 l 209 567 l 209 113 q 209 27 198 -18 q 187 -63 161 -103 q 134 -146 97 -169 q 60 -193 21 -193 q 0 -193 -12 -185 q -24 -177 -24 -163 q -24 -143 -14 -121 q -4 -99 5 -99 q 9 -99 24 -120 q 39 -140 60 -140 q 92 -140 111 -102 q 130 -63 130 2 z"},"V":{"x_min":0,"x_max":711,"ha":711,"o":"m 340 -3 l 92 596 q 81 623 68 640 q 56 657 43 665 q 36 669 22 672 q 21 672 21 672 l 21 672 q 5 675 5 686 q 5 693 9 696 q 13 699 22 699 q 25 699 35 698 q 74 694 108 694 q 133 694 158 697 q 184 699 184 699 q 192 699 197 696 q 201 693 201 687 q 201 683 181 671 q 161 660 161 638 q 161 629 165 615 q 169 602 178 581 l 365 135 q 368 127 372 123 q 375 119 379 119 q 382 119 386 124 q 390 128 393 135 l 539 492 q 559 541 570 580 q 581 619 581 640 q 581 650 573 658 q 565 667 553 670 q 548 671 546 672 q 544 672 542 672 q 541 672 539 673 q 518 679 518 688 q 518 694 522 697 q 526 699 539 699 q 546 699 563 697 q 565 697 566 697 q 569 697 577 696 q 602 694 617 694 q 638 694 664 697 q 669 698 671 698 q 673 699 675 699 q 676 699 678 699 q 687 699 690 696 q 694 693 694 687 q 694 682 690 679 q 687 675 678 671 q 677 670 674 669 q 666 664 663 661 q 645 643 610 558 q 604 545 602 539 l 372 -5 q 369 -12 365 -15 q 361 -19 356 -19 q 351 -19 347 -15 q 343 -11 340 -3 z"},"\"":{"x_min":0,"x_max":328,"ha":328,"o":"m 251 424 l 236 424 l 206 646 q 205 655 204 659 q 204 663 204 667 q 204 689 214 702 q 225 714 244 714 q 263 714 273 701 q 283 689 283 666 q 283 660 281 648 q 281 647 281 646 z m 92 424 l 77 424 l 47 646 q 47 647 47 648 q 45 660 45 666 q 45 689 55 701 q 65 714 84 714 q 103 714 114 702 q 124 689 124 667 q 124 662 123 649 q 122 647 122 646 z"},"7":{"x_min":0,"x_max":495,"ha":495,"o":"m 379 615 l 214 615 q 167 615 146 609 q 125 602 113 586 q 106 577 99 554 q 92 531 81 531 q 76 531 72 536 q 68 541 68 548 q 68 549 76 581 q 85 614 90 649 q 94 677 101 685 q 107 693 122 693 q 124 693 132 692 q 170 687 207 687 l 392 687 q 414 687 419 681 q 425 676 425 660 q 425 600 356 422 l 347 399 q 305 291 284 209 q 263 128 263 78 q 263 43 272 8 q 281 -26 281 -27 q 281 -35 261 -42 q 242 -50 217 -50 q 195 -50 187 -32 q 178 -15 178 31 q 178 80 197 143 q 215 205 261 308 q 274 337 298 390 q 376 558 379 615 z"},"S":{"x_min":0,"x_max":530,"ha":530,"o":"m 58 56 l 36 168 q 35 171 35 175 q 34 179 34 186 q 34 194 37 198 q 40 202 46 202 q 57 202 68 171 q 78 144 87 125 q 110 78 157 51 q 203 24 261 24 q 337 24 383 66 q 428 107 428 176 q 428 232 394 265 q 360 297 262 326 q 146 360 101 405 q 56 450 56 527 q 56 608 117 659 q 178 710 276 710 q 331 710 392 686 q 409 679 413 679 q 420 679 429 685 q 438 690 440 690 q 442 690 444 686 q 446 682 447 676 l 461 554 q 461 552 462 549 q 462 546 462 541 q 462 534 459 530 q 456 527 450 527 q 439 527 431 550 q 422 573 413 587 q 382 637 345 658 q 308 680 256 680 q 192 680 150 645 q 108 609 108 556 q 108 508 135 481 q 161 454 255 424 q 333 399 365 385 q 397 370 416 352 q 449 322 464 284 q 480 246 480 197 q 480 101 414 44 q 348 -12 234 -12 q 164 -12 114 8 q 63 27 58 56 z"},"}":{"x_min":0,"x_max":500,"ha":500,"o":"m 87 740 l 92 740 q 197 740 237 704 q 276 668 276 571 l 276 465 q 276 388 304 360 q 333 332 414 324 l 414 297 q 333 291 305 261 q 276 232 276 156 l 276 50 q 276 -47 237 -83 q 197 -119 92 -119 l 87 -119 l 87 -95 q 160 -94 186 -68 q 212 -42 212 33 l 212 104 q 212 214 242 255 q 273 295 356 310 q 273 325 242 365 q 212 406 212 516 l 212 587 q 212 663 186 689 q 160 715 87 716 z"},"Z":{"x_min":0,"x_max":549,"ha":549,"o":"m 43 45 l 393 627 q 396 631 397 635 q 398 639 398 643 q 398 650 392 654 q 386 658 376 658 l 197 658 q 152 658 127 645 q 103 632 82 596 q 77 586 70 572 q 63 554 55 554 q 48 554 44 558 q 41 561 41 569 q 41 571 41 574 q 42 577 43 585 l 56 675 q 58 690 62 693 q 66 697 85 697 l 471 697 q 492 697 499 693 q 505 689 505 678 q 505 661 496 649 q 495 647 494 646 l 160 92 q 159 90 157 86 q 146 68 146 60 q 146 51 156 47 q 167 42 187 42 l 336 42 q 387 42 416 47 q 446 52 465 64 q 482 74 500 92 q 517 109 524 109 q 528 109 532 105 q 535 101 535 96 q 535 92 534 90 q 534 87 532 84 l 495 16 q 489 5 480 1 q 470 -3 447 -3 q 432 -3 356 -1 q 281 1 222 1 q 162 1 97 -4 q 83 -5 79 -5 l 62 -5 q 41 -5 35 -1 q 30 2 30 12 q 30 23 42 44 z"},"x":{"x_min":0,"x_max":493,"ha":493,"o":"m 217 197 l 109 347 q 98 362 85 372 q 71 382 48 391 q 36 395 32 398 q 28 401 28 406 q 28 413 32 416 q 37 419 47 419 q 49 419 56 418 q 87 415 118 415 q 154 415 186 418 q 191 419 192 419 q 198 419 202 416 q 205 414 205 408 q 205 400 189 394 q 174 389 174 377 q 174 375 176 371 q 178 368 183 361 l 261 252 l 333 342 q 338 348 341 356 q 344 364 344 371 q 344 378 339 384 q 334 390 328 391 q 326 393 323 393 q 320 394 314 394 q 305 394 302 396 q 299 398 299 404 q 299 412 303 415 q 308 419 317 419 q 321 419 343 417 q 364 415 381 415 q 400 415 423 417 q 447 419 451 419 q 458 419 460 417 q 462 414 462 408 q 462 399 446 394 q 434 390 426 386 q 408 377 394 364 q 379 352 358 325 l 280 227 l 396 73 q 418 44 447 30 q 476 16 476 10 q 476 4 471 1 q 467 -2 459 -2 q 457 -2 448 -1 q 415 2 382 2 q 351 2 317 -1 q 309 -2 306 -2 q 301 -2 298 1 q 294 5 294 9 q 294 13 297 16 q 300 20 310 23 q 311 23 313 24 q 327 31 327 39 q 327 44 324 52 q 321 59 315 66 l 234 173 l 166 92 q 157 82 153 72 q 148 62 148 53 q 148 42 155 35 q 162 28 176 24 q 177 23 178 23 q 180 23 182 23 l 183 23 q 195 20 195 10 q 195 3 191 1 q 188 -2 179 -2 q 174 -2 156 0 q 139 1 126 1 q 82 1 42 -1 q 36 -2 35 -2 q 30 -2 27 1 q 24 4 24 9 q 24 18 38 21 q 48 24 53 27 q 73 38 94 56 q 115 75 136 100 z"},")":{"x_min":0,"x_max":370,"ha":370,"o":"m 248 283 q 248 185 220 96 q 192 7 137 -72 q 104 -120 77 -147 q 50 -175 37 -175 q 32 -175 30 -172 q 27 -170 27 -165 q 27 -156 42 -140 q 58 -125 64 -116 q 118 -42 144 46 q 170 134 170 241 q 170 341 148 434 q 126 526 79 627 q 72 643 59 667 q 42 701 42 709 q 42 714 44 717 q 46 719 51 719 q 59 719 68 711 q 77 704 97 678 q 177 577 212 483 q 248 389 248 283 z"},"&":{"x_min":0,"x_max":822,"ha":822,"o":"m 558 115 q 487 178 429 236 q 371 293 330 341 q 324 348 313 360 q 256 429 234 429 q 194 429 161 389 q 129 349 129 294 q 129 251 148 209 q 167 167 201 133 q 239 94 288 74 q 337 53 390 53 q 437 53 479 69 q 521 84 558 115 z m 584 93 q 532 41 475 16 q 418 -8 348 -8 q 228 -8 151 66 q 74 139 74 254 q 74 333 114 384 q 154 436 233 458 q 210 488 200 515 q 189 542 189 569 q 189 627 232 665 q 275 702 342 702 q 387 702 435 683 q 448 678 451 678 q 455 678 463 683 q 471 687 474 687 q 479 687 481 682 q 483 677 484 662 l 488 576 l 488 573 q 488 565 485 561 q 482 556 477 556 q 469 556 461 575 q 453 595 445 606 q 421 641 391 659 q 361 677 327 677 q 291 677 269 655 q 247 633 247 598 q 247 554 326 461 q 404 368 605 178 q 620 199 627 222 q 634 246 634 274 q 634 314 625 334 q 616 355 593 366 q 587 369 580 371 q 572 373 563 374 q 562 374 562 374 q 539 377 539 387 q 539 394 545 396 q 550 399 565 399 q 569 399 596 397 q 623 395 645 395 q 664 395 685 396 q 706 398 709 398 q 718 398 723 395 q 727 393 727 387 q 727 383 707 371 q 686 359 682 336 q 680 327 679 304 q 672 213 633 153 q 714 83 751 58 q 789 32 809 32 q 817 32 829 36 q 840 39 843 39 q 847 39 850 36 q 853 33 853 29 q 853 17 829 5 q 805 -6 773 -6 q 736 -6 696 15 q 655 35 584 93 z"},"_":{"x_min":0,"x_max":500,"ha":500,"o":"m 0 -187 l 500 -187 l 500 -236 l 0 -236 z"},"v":{"x_min":0,"x_max":485,"ha":485,"o":"m 217 7 l 81 332 q 70 357 61 370 q 51 382 39 389 q 35 391 26 394 q 12 398 12 407 q 12 413 17 416 q 21 419 29 419 q 34 419 48 417 q 62 415 71 415 q 101 415 138 417 q 176 419 184 419 q 195 419 198 417 q 201 415 201 408 q 201 397 174 394 q 172 393 171 393 q 160 391 153 384 q 147 377 147 367 q 147 364 148 360 q 148 357 150 352 l 253 98 q 255 94 256 93 q 257 92 259 92 q 260 92 262 94 q 265 95 266 98 l 342 262 q 354 290 361 313 q 367 336 367 356 q 367 373 361 381 q 354 389 335 393 q 332 394 327 395 q 307 397 307 407 q 307 414 311 416 q 314 419 322 419 q 328 419 351 417 q 374 415 391 415 q 407 415 427 417 q 448 419 453 419 q 461 419 465 416 q 469 412 469 405 q 469 396 458 394 q 451 393 447 391 q 439 388 433 381 q 426 374 416 353 l 253 7 q 248 -4 244 -8 q 240 -11 235 -11 q 224 -11 218 3 q 218 5 217 7 z"},"O":{"x_min":0,"x_max":788,"ha":788,"o":"m 108 378 q 108 318 124 261 q 141 205 173 151 q 213 84 271 50 q 329 15 402 15 q 530 15 605 98 q 680 181 680 324 q 680 384 661 446 q 641 507 605 560 q 565 619 510 649 q 454 679 384 679 q 259 679 184 597 q 108 514 108 378 z m 33 347 q 33 421 60 488 q 87 555 139 608 q 189 660 255 687 q 320 714 394 714 q 476 714 542 688 q 608 661 658 609 q 705 560 730 494 q 756 429 756 355 q 756 284 732 219 q 709 153 666 104 q 613 44 544 12 q 476 -19 396 -19 q 234 -19 134 82 q 33 184 33 347 z"},"(":{"x_min":0,"x_max":370,"ha":370,"o":"m 123 261 q 123 359 151 448 q 178 537 234 616 q 268 664 294 692 q 321 719 334 719 q 339 719 342 717 q 344 714 344 709 q 344 700 329 684 q 313 668 307 660 q 253 585 227 498 q 201 410 201 303 q 201 203 223 110 q 245 18 292 -83 q 299 -99 312 -124 q 329 -157 329 -165 q 329 -170 327 -173 q 325 -175 320 -175 q 312 -175 303 -167 q 294 -160 274 -134 q 194 -33 159 61 q 123 155 123 261 z"},"C":{"x_min":0,"x_max":683,"ha":683,"o":"m 631 65 q 577 25 512 5 q 447 -15 369 -15 q 211 -15 120 80 q 29 174 29 338 q 29 420 55 490 q 81 560 132 614 q 177 662 237 686 q 297 710 374 710 q 419 710 460 701 q 501 692 542 674 q 560 666 582 650 q 605 635 612 635 q 616 635 624 639 q 632 644 635 644 q 639 644 642 639 q 644 634 645 624 l 655 520 q 655 516 656 512 q 656 507 656 500 q 656 490 653 487 q 651 483 645 483 q 633 483 621 513 q 612 534 605 545 q 563 611 503 647 q 443 683 375 683 q 258 683 185 599 q 112 515 112 379 q 112 221 189 121 q 266 20 385 20 q 438 20 491 41 q 543 62 583 100 q 602 118 619 147 q 637 177 645 177 q 649 177 651 173 q 654 169 654 163 q 654 161 653 157 q 652 152 651 147 z"},"W":{"x_min":0,"x_max":991,"ha":991,"o":"m 340 -3 l 92 596 q 81 623 68 640 q 56 657 43 665 q 38 667 27 671 q 25 671 24 672 l 23 672 q 5 677 5 687 q 5 693 10 696 q 14 699 25 699 q 26 699 34 698 q 72 694 108 694 q 132 694 158 697 q 183 699 184 699 q 192 699 197 696 q 201 693 201 687 q 201 683 181 671 q 161 660 161 638 q 161 629 165 615 q 169 602 178 581 l 365 135 q 368 127 372 123 q 375 119 379 119 q 382 119 386 124 q 390 128 393 135 l 471 325 q 473 330 474 334 q 475 339 475 344 q 475 348 474 353 q 474 357 472 362 l 375 596 q 364 622 352 640 q 339 657 326 665 q 313 672 292 674 q 272 676 272 686 q 272 693 277 696 q 282 699 292 699 q 294 699 328 697 q 361 694 391 694 q 414 694 439 697 q 464 699 467 699 q 475 699 478 697 q 482 694 482 689 q 482 684 461 674 q 441 665 441 646 q 441 635 445 622 q 448 608 459 581 l 510 461 q 512 455 514 452 q 517 449 518 449 q 520 449 521 451 q 522 453 525 460 l 546 509 q 568 562 577 592 q 586 622 586 639 q 586 653 577 662 q 568 670 547 675 q 533 678 528 681 q 523 684 523 689 q 523 694 527 697 q 532 699 542 699 q 549 699 568 697 q 570 697 571 697 q 575 697 584 696 q 608 694 622 694 q 643 694 669 697 q 674 698 676 698 q 678 698 680 699 q 682 699 684 699 q 692 699 696 696 q 699 693 699 687 q 699 678 684 672 q 669 667 665 663 q 653 652 640 629 q 627 606 599 538 l 544 408 q 542 405 542 401 q 541 396 541 392 q 541 388 542 384 q 543 380 545 376 l 646 135 q 649 127 653 123 q 656 119 660 119 q 663 119 667 123 q 670 127 673 135 l 812 474 q 835 531 848 575 q 861 619 861 640 q 861 650 853 658 q 845 667 833 670 q 830 671 827 671 q 825 672 822 672 q 807 675 803 679 q 799 682 799 688 q 799 694 802 696 q 806 699 819 699 q 821 699 829 699 q 836 698 842 698 q 856 696 870 695 q 883 694 897 694 q 917 694 943 697 q 948 698 950 698 q 952 698 954 699 q 956 699 959 699 q 967 699 970 696 q 974 693 974 687 q 974 679 961 672 q 948 665 944 661 q 925 642 885 546 l 882 539 l 653 -5 q 650 -12 646 -16 q 642 -19 637 -19 q 634 -19 630 -15 q 626 -11 623 -3 l 507 278 q 504 285 502 287 q 501 289 499 289 q 497 289 495 286 q 492 283 490 278 l 372 -5 q 369 -12 365 -16 q 361 -19 356 -19 q 351 -19 347 -15 q 343 -11 340 -3 z"},"A":{"x_min":0,"x_max":752,"ha":752,"o":"m 265 306 l 456 306 q 465 306 470 309 q 475 312 475 316 q 475 320 471 331 l 470 333 l 379 567 q 377 572 374 576 q 370 579 367 579 q 364 579 360 576 q 356 573 354 568 l 246 337 q 243 332 242 327 q 240 323 240 319 q 240 312 246 309 q 252 306 265 306 z m 102 113 l 379 705 q 383 714 386 716 q 390 719 395 719 q 402 719 407 705 q 408 704 408 703 l 635 125 q 652 81 667 60 q 683 40 704 31 q 712 27 729 24 q 750 21 750 10 q 750 3 747 1 q 744 -2 737 -2 q 736 -2 698 1 q 659 4 622 4 q 583 4 542 -1 q 532 -3 529 -3 q 525 -3 521 1 q 518 5 518 9 q 518 19 535 25 q 539 26 541 27 q 559 34 567 42 q 574 50 574 62 q 574 69 572 78 q 569 88 564 100 l 512 235 q 505 254 496 260 q 487 266 469 266 l 244 266 q 228 266 219 260 q 210 253 199 229 l 150 123 q 142 104 138 93 q 135 82 135 72 q 135 58 144 47 q 154 35 172 28 q 178 25 189 24 q 208 21 208 10 q 208 4 204 1 q 201 -2 192 -2 q 187 -2 148 1 q 110 4 78 4 q 62 4 44 1 q 25 -2 22 -2 q 18 -2 14 2 q 10 6 10 11 q 10 19 27 26 l 28 26 q 29 26 31 27 q 44 33 50 37 q 62 46 74 63 q 86 81 102 113 z"},"f":{"x_min":0,"x_max":273,"ha":273,"o":"m 87 111 l 87 377 l 39 377 q 27 377 24 378 q 21 380 21 383 q 21 403 26 410 q 31 417 47 417 l 88 417 q 92 551 159 643 q 226 735 312 735 q 333 735 342 728 q 350 721 350 702 q 350 672 345 657 q 341 643 331 643 q 321 643 318 656 q 318 660 317 662 q 312 672 298 678 q 283 685 264 685 q 218 685 189 634 q 159 582 159 502 l 159 417 l 208 417 q 232 417 250 425 q 268 432 268 432 q 270 432 271 430 q 273 428 273 425 q 273 410 262 393 q 251 376 242 376 q 240 376 227 376 q 214 377 203 377 l 159 377 l 159 111 q 159 68 166 54 q 173 40 191 30 q 195 28 199 27 q 203 25 212 24 q 212 24 213 24 q 230 20 230 9 q 230 3 226 0 q 223 -3 216 -3 q 214 -3 188 0 q 161 3 135 3 q 94 3 57 -2 q 50 -3 49 -3 q 44 -3 40 0 q 36 3 36 8 q 36 13 40 17 q 43 21 54 27 q 55 28 62 32 q 69 36 72 39 q 80 48 83 61 q 87 74 87 111 z"},"Q":{"x_min":0,"x_max":788,"ha":788,"o":"m 109 381 q 109 317 124 261 q 140 206 170 159 q 213 93 272 59 q 330 25 402 25 q 530 25 605 107 q 680 189 680 330 q 680 388 660 449 q 640 510 604 563 q 565 620 509 650 q 454 679 384 679 q 259 679 184 598 q 109 517 109 381 z m 184 52 q 107 104 70 176 q 32 247 32 341 q 32 400 48 454 q 63 508 93 553 q 144 630 222 672 q 300 714 393 714 q 474 714 541 688 q 608 662 658 610 q 705 562 730 497 q 755 432 755 358 q 755 217 674 121 q 593 24 455 0 q 502 -22 574 -73 q 646 -125 683 -125 q 705 -125 731 -114 q 756 -102 761 -102 q 766 -102 769 -104 q 771 -107 771 -112 q 771 -131 730 -151 q 689 -172 641 -172 q 574 -172 465 -104 l 454 -98 q 338 -27 294 -8 q 250 12 222 12 q 200 12 183 2 q 166 -8 150 -30 q 141 -43 134 -66 q 127 -88 117 -88 q 112 -88 108 -83 q 105 -79 105 -72 q 105 -36 128 1 q 151 38 184 52 z"},"w":{"x_min":0,"x_max":657,"ha":657,"o":"m 183 11 l 74 331 q 67 349 59 363 q 50 376 40 385 q 36 389 26 393 q 10 399 10 409 q 10 414 13 417 q 17 419 24 419 q 29 419 49 417 q 68 414 83 414 q 125 414 162 420 q 168 421 169 421 q 173 421 176 417 q 179 414 179 409 q 179 402 159 392 q 138 381 138 363 q 138 357 139 351 q 141 345 143 338 l 223 105 q 225 101 227 98 q 229 95 230 95 q 231 95 234 101 q 235 103 236 104 l 312 266 q 314 271 316 276 q 317 281 317 285 q 317 292 316 298 q 315 303 313 308 l 295 359 q 288 381 257 392 l 257 392 l 256 392 q 239 399 239 408 q 239 414 242 417 q 246 419 255 419 q 259 419 285 417 q 311 415 333 415 q 353 415 374 417 q 395 419 396 419 q 404 419 407 416 q 410 414 410 407 q 410 400 391 391 q 372 383 372 367 q 372 363 373 359 q 374 355 375 351 l 456 107 q 458 104 459 102 q 460 100 462 100 q 464 100 466 102 q 468 104 469 107 l 539 278 q 548 300 552 319 q 557 337 557 354 q 557 370 551 379 q 544 389 532 392 q 527 393 520 394 q 502 396 502 407 q 502 414 506 417 q 510 420 518 420 q 521 420 542 417 q 564 413 584 413 q 596 413 613 416 q 630 419 635 419 q 640 419 643 417 q 646 415 646 410 q 646 398 635 394 q 631 393 630 392 q 621 388 615 380 q 609 372 600 350 l 457 8 q 453 -2 448 -6 q 444 -10 438 -10 q 431 -10 427 -6 q 423 -2 420 8 l 342 231 q 341 235 338 238 q 336 240 334 240 q 332 240 330 238 q 329 236 326 231 l 222 7 q 216 -5 212 -8 q 208 -11 203 -11 q 196 -11 192 -7 q 188 -3 183 11 z"},"-":{"x_min":0,"x_max":331,"ha":331,"o":"m 75 150 q 71 148 68 148 q 65 147 63 147 q 59 147 58 150 q 56 153 56 162 l 56 193 q 56 201 61 206 q 65 211 75 215 l 256 280 q 259 281 263 282 q 266 283 268 283 q 271 283 272 280 q 274 277 274 268 l 274 237 q 274 229 270 224 q 265 218 256 215 z"},"E":{"x_min":0,"x_max":562,"ha":562,"o":"m 110 134 l 110 567 q 110 609 104 627 q 97 645 81 657 q 74 662 66 665 q 58 668 45 671 q 33 673 29 676 q 25 679 25 685 q 25 694 29 697 q 33 700 44 700 q 46 700 58 699 q 138 694 228 694 q 337 694 445 702 q 465 703 469 703 q 481 703 485 699 q 489 695 489 683 l 489 677 q 489 676 488 675 q 488 673 488 670 l 481 588 q 480 576 478 572 q 475 567 469 567 q 463 567 459 572 q 456 576 456 585 q 456 587 457 591 q 457 595 457 596 q 457 633 431 647 q 405 662 335 662 l 265 662 q 216 662 202 654 q 188 646 188 622 l 188 416 q 188 389 194 384 q 200 378 222 378 l 304 378 q 350 378 371 385 q 392 393 404 410 q 410 418 415 437 q 421 456 430 456 q 436 456 439 450 q 442 444 442 434 q 442 432 440 401 q 438 371 438 342 q 438 314 442 284 q 443 275 443 273 q 443 264 439 258 q 435 252 429 252 q 417 252 414 276 q 411 292 408 301 q 400 322 379 330 q 358 339 312 339 l 218 339 q 199 339 194 333 q 188 327 188 306 l 188 102 q 188 64 204 52 q 221 39 270 39 q 331 39 386 52 q 441 65 476 87 q 496 100 512 121 q 529 143 535 143 q 539 143 542 138 q 544 134 544 126 q 544 112 535 89 q 525 66 512 49 q 489 21 465 9 q 441 -3 404 -3 q 394 -3 335 0 q 276 3 228 3 q 142 3 64 -3 q 53 -4 51 -4 q 47 -4 44 0 q 40 3 40 8 q 40 14 43 18 q 47 22 59 28 q 60 28 61 29 q 79 37 87 46 q 100 59 105 76 q 110 94 110 134 z"},"s":{"x_min":0,"x_max":343,"ha":343,"o":"m 38 44 l 37 127 q 37 138 40 143 q 43 148 50 148 q 59 148 63 125 q 66 108 70 97 q 83 58 108 37 q 133 17 169 17 q 207 17 231 40 q 255 63 255 100 q 255 145 165 187 q 147 194 138 199 q 89 222 68 248 q 47 274 47 312 q 47 365 83 397 q 118 428 179 428 q 227 428 253 418 q 279 409 280 391 l 281 335 q 281 326 279 322 q 277 318 272 318 q 264 318 260 333 q 255 349 251 355 q 235 378 211 391 q 188 404 163 404 q 132 404 113 388 q 94 372 94 345 q 94 298 209 249 q 217 245 222 243 q 264 225 283 197 q 303 170 303 130 q 303 68 263 28 q 222 -12 160 -12 q 124 -12 78 10 q 66 16 62 17 q 60 18 55 19 q 38 22 38 44 z"},">":{"x_min":0,"x_max":833,"ha":833,"o":"m 129 554 l 704 318 l 704 278 l 129 43 l 129 96 l 628 298 l 129 501 z"},"l":{"x_min":0,"x_max":255,"ha":255,"o":"m 89 111 l 89 590 q 89 642 81 656 q 72 670 49 670 l 40 670 q 32 670 27 673 q 22 677 22 682 q 22 693 47 699 l 48 699 q 60 701 70 704 q 80 707 90 711 q 107 718 127 730 q 148 742 154 742 q 160 742 164 738 q 167 733 167 724 q 167 722 167 713 q 161 643 161 562 l 161 110 q 161 66 168 52 q 175 39 194 30 q 202 26 218 24 l 219 24 q 233 23 237 20 q 241 16 241 9 q 241 3 237 0 q 232 -3 225 -3 q 223 -3 194 0 q 165 2 137 2 q 95 2 58 -2 q 52 -3 51 -3 q 46 -3 42 0 q 38 3 38 8 q 38 13 42 17 q 45 21 56 27 q 58 28 61 30 q 69 35 73 39 q 82 48 85 62 q 89 77 89 111 z"},"8":{"x_min":0,"x_max":495,"ha":495,"o":"m 122 559 q 122 501 167 459 q 211 417 268 417 q 312 417 342 450 q 372 482 372 531 q 372 596 335 635 q 298 674 237 674 q 189 674 156 640 q 122 607 122 559 z m 194 359 q 145 337 116 296 q 87 255 87 206 q 87 126 133 71 q 179 15 246 15 q 307 15 346 55 q 386 95 386 157 q 386 225 341 272 q 295 320 194 359 z m 165 376 q 118 401 94 439 q 70 478 70 527 q 70 601 122 652 q 174 702 251 702 q 326 702 373 658 q 420 615 420 545 q 420 495 392 456 q 364 417 309 391 q 378 358 410 311 q 443 264 443 197 q 443 101 384 42 q 324 -17 227 -17 q 147 -17 92 40 q 37 96 37 179 q 37 244 69 293 q 101 342 165 376 z"},"\\":{"x_min":0,"x_max":278,"ha":278,"o":"m 45 699 l 309 -93 l 270 -93 l 6 699 z"},"e":{"x_min":0,"x_max":444,"ha":444,"o":"m 106 279 l 243 279 q 293 279 305 283 q 318 288 318 300 q 318 341 285 373 q 252 405 208 405 q 166 405 139 371 q 112 338 106 279 z m 104 253 q 104 156 148 98 q 192 40 266 40 q 322 40 379 80 q 395 90 399 90 q 403 90 405 89 q 406 87 406 83 q 406 77 401 69 q 396 62 384 51 q 348 18 309 2 q 270 -13 224 -13 q 144 -13 89 48 q 33 109 33 198 q 33 293 89 362 q 146 430 222 430 q 267 430 302 413 q 337 395 364 360 q 381 338 391 315 q 400 292 400 272 q 400 261 395 257 q 390 253 366 253 z"},"b":{"x_min":0,"x_max":486,"ha":486,"o":"m 143 132 l 143 125 q 143 102 147 89 q 150 77 159 65 q 178 41 207 26 q 236 11 265 11 q 327 11 365 56 q 403 101 403 175 q 403 261 356 321 q 310 382 246 382 q 206 382 174 358 q 143 335 143 304 z m 72 590 q 72 640 63 655 q 55 670 31 670 l 23 670 q 15 670 10 673 q 4 676 4 682 q 4 688 9 692 q 13 695 31 698 q 33 699 38 700 q 60 706 73 711 q 90 718 110 730 q 131 742 137 742 q 143 742 146 738 q 149 733 149 724 q 149 721 148 708 q 143 635 143 562 l 143 366 q 182 398 217 413 q 251 428 286 428 q 360 428 408 373 q 455 318 455 229 q 455 122 398 54 q 341 -14 253 -14 q 192 -14 135 27 q 120 38 115 38 q 107 38 97 12 q 86 -13 75 -13 q 71 -13 69 -9 q 67 -5 67 2 q 67 4 68 11 q 72 40 72 65 z"},"%":{"x_min":0,"x_max":786,"ha":786,"o":"m 493 216 q 493 125 522 72 q 550 19 599 19 q 640 19 662 51 q 684 83 684 143 q 684 231 655 285 q 626 338 579 338 q 539 338 516 306 q 493 273 493 216 z m 588 -4 q 518 -4 475 48 q 432 99 432 183 q 432 262 476 311 q 519 360 588 360 q 659 360 703 309 q 746 258 746 175 q 746 94 702 45 q 659 -4 588 -4 z m 180 -14 l 567 699 l 607 699 l 220 -14 z m 102 545 q 102 454 131 401 q 159 348 208 348 q 249 348 271 380 q 293 413 293 472 q 293 560 264 614 q 235 667 188 667 q 147 667 125 635 q 102 603 102 545 z m 197 325 q 127 325 84 377 q 41 428 41 512 q 41 590 84 639 q 127 688 197 688 q 268 688 312 637 q 355 586 355 503 q 355 423 312 374 q 268 325 197 325 z"},"m":{"x_min":0,"x_max":766,"ha":766,"o":"m 89 111 l 89 323 q 89 349 78 361 q 67 372 43 372 q 28 372 23 375 q 17 378 17 384 q 17 390 21 393 q 25 396 40 399 q 42 399 47 401 q 70 407 85 413 q 99 419 121 431 q 143 442 149 442 q 154 442 157 438 q 159 434 159 418 l 159 359 q 193 395 225 413 q 257 430 288 430 q 327 430 359 407 q 391 384 406 345 l 425 363 q 465 401 492 416 q 520 430 549 430 q 580 430 607 415 q 635 399 653 371 q 668 347 675 314 q 681 282 681 207 l 681 110 q 681 69 687 55 q 693 41 709 31 q 715 27 722 26 q 729 24 739 24 q 751 24 756 21 q 761 17 761 9 q 761 3 757 0 q 752 -3 745 -3 q 742 -3 713 0 q 684 2 657 2 q 619 2 583 -2 q 579 -3 578 -3 q 573 -3 570 0 q 566 4 566 8 q 566 16 580 25 q 593 34 598 40 q 605 51 609 65 q 612 80 612 111 l 612 223 q 612 312 590 349 q 568 386 518 386 q 473 386 446 359 q 420 332 420 284 l 420 110 q 420 67 426 54 q 431 40 445 31 q 451 27 457 26 q 464 24 473 24 q 474 24 474 24 q 493 21 493 9 q 493 3 489 0 q 485 -3 478 -3 q 475 -3 447 0 q 419 2 395 2 q 357 2 322 -2 q 317 -3 316 -3 q 312 -3 308 0 q 304 3 304 8 q 304 16 318 25 q 332 34 336 40 q 344 51 347 65 q 350 80 350 111 l 350 223 q 350 313 328 350 q 307 386 256 386 q 211 386 185 359 q 159 332 159 284 l 159 110 q 159 69 165 54 q 171 39 187 30 q 195 26 209 24 q 209 24 210 24 q 223 23 227 20 q 231 16 231 9 q 231 3 227 0 q 224 -3 217 -3 q 212 -3 185 0 q 157 2 134 2 q 94 2 58 -2 q 52 -3 51 -3 q 46 -3 42 0 q 38 3 38 8 q 38 13 41 16 q 44 20 52 24 q 53 25 57 27 q 67 35 72 40 q 82 52 85 66 q 89 80 89 111 z"},"#":{"x_min":0,"x_max":769,"ha":769,"o":"m 342 426 l 291 282 l 435 282 l 486 426 z m 387 710 l 443 710 l 359 474 l 503 474 l 587 710 l 642 710 l 558 474 l 712 474 l 695 426 l 541 426 l 491 282 l 657 282 l 639 234 l 473 234 l 390 0 l 335 0 l 418 234 l 275 234 l 191 0 l 136 0 l 219 234 l 57 234 l 75 282 l 236 282 l 287 426 l 112 426 l 129 474 l 304 474 z"},",":{"x_min":0,"x_max":248,"ha":248,"o":"m 62 78 l 102 120 q 105 123 108 125 q 112 126 116 126 q 138 126 159 94 q 181 62 181 20 q 181 -11 171 -41 q 160 -71 140 -98 q 122 -122 106 -135 q 90 -148 80 -148 q 75 -148 73 -146 q 70 -144 70 -140 q 70 -136 82 -124 q 121 -83 121 -34 q 121 -14 114 1 q 107 17 92 31 q 86 36 76 44 q 58 58 58 65 q 58 70 59 73 q 60 76 62 78 z"},"n":{"x_min":0,"x_max":541,"ha":541,"o":"m 89 111 l 89 322 q 89 349 78 360 q 67 372 43 372 q 28 372 23 375 q 17 378 17 384 q 17 391 21 394 q 25 397 39 398 q 40 398 42 398 q 51 400 56 402 q 85 412 115 427 q 145 441 148 441 q 154 441 157 437 q 159 432 159 418 l 159 359 q 199 395 235 413 q 271 430 306 430 q 341 430 373 415 q 404 399 424 371 q 441 347 449 314 q 456 280 456 207 l 456 110 q 456 69 462 55 q 468 41 484 31 q 490 27 498 26 q 505 24 514 24 q 526 24 531 21 q 535 17 535 9 q 535 3 531 0 q 527 -3 520 -3 q 517 -3 487 0 q 458 2 431 2 q 393 2 358 -2 q 353 -3 352 -3 q 348 -3 344 0 q 341 3 341 8 q 341 16 354 25 q 367 34 372 40 q 380 50 383 64 q 386 79 386 111 l 386 223 q 386 314 361 350 q 335 386 275 386 q 220 386 190 359 q 159 333 159 284 l 159 110 q 159 70 166 55 q 173 40 192 30 q 197 27 205 25 q 212 24 221 24 q 236 23 241 20 q 245 16 245 9 q 245 3 241 0 q 236 -3 229 -3 q 226 -3 194 0 q 163 2 135 2 q 95 2 58 -2 q 52 -3 51 -3 q 46 -3 42 0 q 38 3 38 8 q 38 13 41 16 q 44 20 52 24 q 53 25 57 27 q 67 35 72 40 q 82 52 85 66 q 89 80 89 111 z"},"h":{"x_min":0,"x_max":539,"ha":539,"o":"m 87 111 l 87 590 q 87 640 78 655 q 69 670 45 670 l 37 670 q 28 670 23 673 q 18 677 18 682 q 18 688 23 691 q 27 695 45 698 q 47 699 52 700 q 74 706 87 711 q 104 718 124 730 q 144 742 150 742 q 156 742 160 737 q 164 731 164 722 q 164 721 163 710 q 157 641 157 562 l 157 359 q 197 395 233 413 q 270 430 304 430 q 339 430 371 415 q 402 399 422 371 q 440 347 448 312 q 455 277 455 207 l 455 110 q 455 67 461 54 q 467 40 482 31 q 488 27 495 26 q 502 24 512 24 q 524 24 529 21 q 534 17 534 9 q 534 3 530 0 q 526 -3 519 -3 q 516 -3 486 0 q 457 2 430 2 q 392 2 356 -2 q 352 -3 351 -3 q 347 -3 343 0 q 339 3 339 8 q 339 15 353 24 q 366 34 371 40 q 378 50 382 64 q 385 79 385 111 l 385 223 q 385 313 359 350 q 333 386 273 386 q 218 386 188 359 q 157 333 157 284 l 157 110 q 157 71 164 55 q 171 40 191 30 q 196 27 204 25 q 211 24 220 24 q 235 23 240 20 q 244 16 244 9 q 244 3 240 0 q 235 -3 228 -3 q 225 -3 193 0 q 161 2 133 2 q 93 2 56 -2 q 50 -3 49 -3 q 44 -3 41 0 q 37 3 37 8 q 37 13 40 16 q 43 20 51 24 q 53 25 57 28 q 66 35 70 40 q 79 52 83 66 q 87 80 87 111 z"},"z":{"x_min":0,"x_max":355,"ha":355,"o":"m 263 360 l 122 360 q 102 360 89 354 q 77 348 68 335 q 64 330 61 318 q 55 302 45 302 q 40 302 38 304 q 36 307 36 312 q 36 314 37 319 q 38 321 38 323 l 54 398 q 57 411 63 415 q 69 420 86 420 q 98 420 117 419 q 137 419 145 419 l 310 419 q 317 419 319 417 q 322 414 322 406 q 322 400 320 395 q 317 389 313 383 l 94 62 l 240 62 q 258 62 271 68 q 284 74 291 85 q 297 95 304 112 q 313 134 322 134 q 327 134 330 130 q 333 127 333 122 q 333 120 331 114 q 330 111 329 109 l 301 22 q 297 9 290 4 q 284 0 260 0 l 61 0 q 46 0 40 3 q 33 5 33 12 q 33 18 36 25 q 39 32 49 47 z"},"B":{"x_min":0,"x_max":595,"ha":595,"o":"m 195 428 q 195 405 201 399 q 207 393 225 393 l 296 393 q 373 393 408 419 q 443 445 443 502 q 443 572 389 619 q 335 665 254 665 q 217 665 206 654 q 195 643 195 610 z m 195 96 q 195 54 218 39 q 241 24 315 24 q 406 24 451 63 q 497 102 497 180 q 497 264 443 311 q 389 358 291 358 l 230 358 q 207 358 201 352 q 195 346 195 322 z m 117 134 l 117 567 q 117 606 110 625 q 103 645 85 657 q 78 662 69 665 q 61 668 47 671 q 34 673 30 676 q 26 679 26 685 q 26 693 30 696 q 34 699 47 699 q 52 699 86 697 q 121 694 151 694 q 170 694 214 697 q 258 699 284 699 q 392 699 452 655 q 512 610 512 531 q 512 485 489 450 q 466 416 420 391 l 420 382 q 494 369 534 324 q 573 279 573 209 q 573 110 507 52 q 440 -7 325 -7 q 286 -7 231 -2 q 177 2 162 2 q 119 2 71 -3 q 59 -4 56 -4 q 52 -4 49 0 q 45 5 45 10 q 45 20 62 27 l 63 27 q 75 32 81 36 q 88 41 93 46 q 106 59 112 78 q 117 96 117 134 z"},"K":{"x_min":0,"x_max":675,"ha":675,"o":"m 116 134 l 116 567 q 116 609 109 627 q 102 645 85 657 q 78 662 69 665 q 61 668 47 671 q 34 673 29 676 q 25 679 25 685 q 25 693 29 696 q 33 699 46 699 q 52 699 86 697 q 120 694 148 694 q 200 694 248 698 q 256 699 258 699 q 265 699 270 696 q 274 692 274 687 q 274 676 251 669 l 251 669 q 239 666 231 662 q 223 658 217 653 q 204 642 198 625 q 193 609 193 567 l 193 397 q 193 386 194 382 q 196 378 199 378 q 201 378 204 380 q 208 381 212 385 l 442 592 q 456 604 463 616 q 470 628 470 639 q 470 652 465 658 q 459 664 442 667 q 440 667 438 668 q 415 672 415 684 q 415 691 419 695 q 424 699 432 699 q 434 699 444 698 q 489 694 532 694 q 574 694 619 698 q 627 699 629 699 q 636 699 640 696 q 643 693 643 686 q 643 679 639 675 q 634 671 619 667 q 618 667 616 667 q 614 666 612 665 q 588 658 554 635 q 520 613 479 576 l 284 402 q 275 394 272 390 q 269 386 269 382 q 269 378 271 374 q 274 369 279 364 l 532 95 q 563 62 582 48 q 600 35 619 29 q 623 28 629 27 q 636 26 639 25 q 652 25 656 22 q 659 19 659 12 q 659 3 653 0 q 646 -4 621 -4 l 611 -4 l 553 -4 q 535 -4 523 1 q 511 6 494 24 l 218 316 q 213 320 210 322 q 207 324 204 324 q 198 324 195 320 q 193 316 193 304 l 193 133 q 193 91 200 72 q 208 52 225 39 q 238 29 260 25 q 262 25 262 25 q 275 23 280 20 q 284 17 284 10 q 284 2 280 -1 q 276 -4 263 -4 q 248 -4 212 -1 q 176 2 155 2 q 110 2 63 -3 q 53 -4 51 -4 q 43 -4 39 0 q 35 3 35 9 q 35 20 54 27 q 56 28 56 28 q 66 31 74 36 q 83 40 89 46 q 104 59 110 76 q 116 93 116 134 z"},"R":{"x_min":0,"x_max":646,"ha":646,"o":"m 194 629 l 194 386 q 194 373 203 368 q 212 363 249 363 l 259 363 q 353 363 395 396 q 437 429 437 503 q 437 579 387 622 q 337 665 248 665 q 215 665 204 657 q 194 650 194 629 z m 116 134 l 116 567 q 116 609 110 627 q 103 645 87 657 q 81 662 73 665 q 64 668 52 671 q 40 673 36 676 q 32 679 32 685 q 32 693 36 696 q 40 699 51 699 q 55 699 88 697 q 120 694 148 694 q 159 694 209 697 q 260 699 299 699 q 399 699 456 654 q 512 609 512 530 q 512 474 479 428 q 447 382 387 356 l 502 181 q 506 174 515 162 q 585 53 623 34 q 633 29 651 25 q 668 22 668 14 q 668 4 657 0 q 647 -4 613 -4 q 564 -4 529 21 q 493 46 444 124 l 340 289 q 325 312 307 321 q 289 330 242 330 q 212 330 203 323 q 194 315 194 295 l 194 133 q 194 89 201 71 q 209 52 228 39 q 241 30 267 25 q 269 25 269 25 q 284 23 288 20 q 293 16 293 10 q 293 2 289 -1 q 285 -4 274 -4 q 268 -4 230 -1 q 193 2 162 2 q 110 2 62 -3 q 53 -4 51 -4 q 43 -4 39 0 q 35 3 35 9 q 35 20 55 27 l 57 28 q 67 31 75 36 q 83 40 90 46 q 104 59 110 75 q 116 91 116 134 z"},"T":{"x_min":0,"x_max":659,"ha":659,"o":"m 289 125 l 289 629 q 289 643 283 648 q 277 654 261 654 l 122 654 q 95 654 78 641 q 61 627 47 597 q 43 588 39 572 q 33 548 22 548 q 16 548 14 551 q 12 553 12 561 q 12 567 12 571 q 13 575 13 578 l 24 679 q 25 692 31 696 q 36 700 57 700 q 63 700 103 697 q 142 694 175 694 l 487 694 q 523 694 566 697 q 609 700 615 700 q 625 700 630 696 q 635 692 636 683 l 643 592 l 643 585 q 643 575 640 571 q 637 566 631 566 q 620 566 617 585 q 613 605 609 613 q 599 632 578 643 q 556 654 528 654 l 398 654 q 380 654 374 648 q 367 643 367 628 l 367 121 q 367 76 375 61 q 382 46 405 36 q 416 31 435 27 q 438 26 439 26 q 452 24 456 21 q 460 18 460 11 q 460 3 455 0 q 449 -4 438 -4 q 426 -4 388 0 q 350 3 324 3 q 291 3 253 -1 q 216 -6 213 -6 q 204 -6 199 -2 q 194 1 194 8 q 194 16 199 20 q 205 23 223 26 q 225 26 228 27 q 245 31 253 34 q 274 43 281 58 q 289 73 289 125 z"},"P":{"x_min":0,"x_max":547,"ha":547,"o":"m 116 134 l 116 567 q 116 609 110 627 q 104 645 88 657 q 82 662 74 665 q 66 668 54 671 q 42 673 38 676 q 34 679 34 685 q 34 693 38 696 q 42 699 53 699 q 56 699 87 697 q 119 694 147 694 q 167 694 212 697 q 257 699 283 699 q 397 699 461 648 q 525 596 525 505 q 525 425 462 369 q 400 313 309 313 q 268 313 241 320 q 215 327 215 337 q 215 342 218 345 q 221 348 226 348 q 228 348 246 344 q 264 341 281 341 q 364 341 407 377 q 451 413 451 481 q 451 563 394 614 q 336 664 241 664 q 213 664 203 656 q 193 648 193 628 l 193 133 q 193 81 201 64 q 208 47 229 36 q 241 29 264 25 q 265 25 266 25 q 281 23 285 20 q 290 16 290 10 q 290 2 286 -1 q 282 -4 269 -4 q 248 -4 210 -1 q 172 2 155 2 q 110 2 62 -3 q 52 -4 50 -4 q 43 -4 39 0 q 35 3 35 9 q 35 20 54 27 q 56 28 56 28 q 66 31 74 36 q 83 40 89 46 q 104 59 110 76 q 116 93 116 134 z"},"|":{"x_min":0,"x_max":500,"ha":500,"o":"m 224 764 l 277 764 l 277 -236 l 224 -236 z"},"t":{"x_min":0,"x_max":329,"ha":329,"o":"m 89 376 l 52 376 q 48 376 43 380 q 38 383 38 387 q 38 391 59 409 q 81 428 99 448 q 112 462 128 490 q 144 518 152 518 q 156 518 158 516 q 159 513 159 506 l 159 416 l 246 416 q 275 416 297 428 q 304 431 306 431 q 308 431 309 429 q 310 428 310 424 q 310 404 298 389 q 286 374 268 374 q 265 374 259 375 q 253 376 250 376 l 159 376 l 159 97 q 159 61 177 42 q 195 23 229 23 q 261 23 295 42 q 305 47 308 47 q 312 47 315 45 q 318 44 318 41 q 318 23 282 5 q 246 -14 202 -14 q 142 -14 115 16 q 89 47 89 119 z"},"M":{"x_min":0,"x_max":878,"ha":878,"o":"m 181 482 q 178 488 175 491 q 171 495 169 495 q 164 495 161 466 q 158 438 155 357 l 150 224 q 149 207 149 188 q 149 169 149 137 q 149 88 157 68 q 165 48 186 35 q 195 29 213 25 q 214 25 215 25 l 216 25 q 238 20 238 9 q 238 3 232 0 q 227 -4 217 -4 q 213 -4 199 -2 q 150 2 108 2 q 88 2 67 -1 q 46 -4 45 -4 q 39 -4 34 1 q 29 5 29 11 q 29 15 31 19 q 34 23 37 24 q 38 24 40 25 q 42 26 44 26 q 70 35 79 44 q 87 53 92 68 q 102 100 112 224 q 122 349 122 494 q 122 561 110 600 q 98 640 71 659 q 64 665 48 668 q 47 669 47 669 q 47 669 45 669 q 28 675 28 685 q 28 692 33 696 q 38 699 48 699 q 52 699 71 698 q 90 696 105 696 l 113 696 q 115 696 118 697 q 121 697 127 697 q 161 697 172 672 l 173 671 l 418 153 q 421 146 424 143 q 428 140 431 140 q 435 140 438 144 q 441 147 445 155 l 704 678 q 705 679 706 682 q 713 695 729 695 l 750 695 q 764 695 783 697 q 801 699 805 699 q 815 699 821 696 q 826 692 826 686 q 826 675 808 670 l 807 670 q 799 669 793 667 q 787 665 782 661 q 767 651 760 636 q 754 622 754 593 l 754 580 l 764 132 q 764 130 764 125 q 766 51 800 34 q 807 31 820 27 q 822 26 823 26 l 824 26 q 842 21 842 12 q 842 5 836 2 q 830 -2 819 -2 q 808 -2 773 0 q 738 2 715 2 q 692 2 668 -1 q 644 -4 642 -4 q 634 -4 631 -1 q 627 1 627 7 q 627 14 631 18 q 634 21 648 26 q 650 26 652 27 q 655 28 660 31 q 676 39 682 53 q 689 68 689 100 q 689 105 688 119 q 688 133 688 141 l 682 458 q 681 484 678 495 q 675 506 670 506 q 665 506 658 498 q 651 489 643 472 l 431 42 q 425 29 420 24 q 415 19 409 19 q 403 19 397 25 q 392 30 387 42 z"},"g":{"x_min":0,"x_max":439,"ha":439,"o":"m 118 -15 q 95 -24 84 -42 q 73 -60 73 -90 q 73 -129 104 -149 q 134 -169 195 -169 q 272 -169 316 -144 q 360 -118 360 -74 q 360 -50 347 -40 q 334 -30 300 -28 q 284 -27 250 -26 q 162 -24 118 -15 z m 117 300 q 117 231 143 195 q 168 159 217 159 q 264 159 288 188 q 313 218 313 273 q 313 338 286 377 q 259 415 214 415 q 169 415 143 384 q 117 354 117 300 z m 95 -3 q 78 5 69 22 q 59 39 59 60 q 59 83 73 108 q 86 132 112 156 q 82 176 66 208 q 50 239 50 281 q 50 347 96 392 q 143 437 210 437 q 256 437 299 417 q 342 397 348 397 q 361 397 374 405 q 387 413 395 426 q 398 431 400 436 q 401 440 402 445 l 402 446 q 405 458 413 458 q 419 458 422 453 q 426 447 426 438 q 426 401 412 378 q 398 354 369 341 q 375 329 377 317 q 380 305 380 291 q 380 220 333 177 q 285 135 206 135 q 187 135 166 138 q 145 142 143 142 q 127 142 113 125 q 99 108 99 88 q 99 60 129 50 q 159 39 287 39 q 352 39 380 18 q 407 -3 407 -52 q 407 -119 351 -156 q 294 -194 194 -194 q 116 -194 69 -166 q 23 -139 23 -93 q 23 -64 40 -42 q 58 -21 95 -3 z"},"j":{"x_min":0,"x_max":249,"ha":249,"o":"m 90 582 q 90 596 107 616 q 124 636 134 636 q 143 636 160 617 q 177 598 177 585 q 177 573 160 553 q 144 533 131 533 q 118 533 104 550 q 90 567 90 582 z m 96 323 q 96 343 88 355 q 80 367 65 370 q 60 371 49 372 q 24 374 24 383 q 24 389 29 393 q 33 396 50 399 q 52 399 57 401 q 80 406 95 412 q 107 417 128 429 q 149 442 158 442 q 164 442 167 439 q 169 436 169 426 q 169 424 168 411 q 166 337 166 262 l 166 36 q 166 -75 130 -138 q 93 -201 31 -201 q 16 -201 8 -189 q 0 -178 0 -155 q 0 -136 6 -125 q 12 -113 21 -113 q 25 -113 43 -135 q 61 -157 75 -157 q 87 -157 92 -141 q 96 -124 96 -62 z"},"i":{"x_min":0,"x_max":251,"ha":251,"o":"m 86 582 q 86 596 103 616 q 120 636 130 636 q 139 636 156 617 q 173 598 173 585 q 173 573 157 553 q 141 533 128 533 q 115 533 101 550 q 86 567 86 582 z m 91 111 l 91 291 q 91 342 82 356 q 73 371 48 371 q 34 371 27 374 q 20 377 20 383 q 20 393 44 399 l 45 399 q 56 401 67 404 q 78 408 90 413 q 104 419 125 430 q 147 442 154 442 q 160 442 163 439 q 165 436 165 426 q 165 424 165 411 q 162 337 162 262 l 162 110 q 162 71 169 55 q 176 40 196 30 q 202 27 209 25 q 216 24 225 24 q 240 23 245 20 q 249 16 249 9 q 249 4 244 0 q 239 -3 232 -3 q 229 -3 197 0 q 165 2 137 2 q 97 2 59 -2 q 53 -3 52 -3 q 47 -3 43 0 q 40 3 40 8 q 40 13 43 16 q 46 20 54 24 q 55 25 59 27 q 69 35 74 40 q 83 52 87 66 q 91 80 91 111 z"},"y":{"x_min":0,"x_max":424,"ha":424,"o":"m 52 356 q 46 371 37 379 q 28 388 11 393 q 10 394 8 394 q -5 400 -5 408 q -5 414 -2 417 q 1 419 10 419 q 16 419 41 417 q 66 414 85 414 q 106 414 132 417 q 157 419 162 419 q 170 419 174 416 q 178 414 178 407 q 178 398 163 396 q 159 395 157 394 q 142 391 134 384 q 127 377 127 366 q 127 359 129 349 q 132 339 136 329 l 233 91 q 233 89 235 87 q 236 85 237 85 q 239 85 240 87 q 242 88 243 91 l 307 271 q 314 291 318 312 q 322 333 322 353 q 322 369 315 379 q 309 389 297 392 q 292 393 284 394 q 267 396 267 407 q 267 414 271 416 q 274 419 283 419 q 288 419 309 417 q 330 415 346 415 q 362 415 381 417 q 399 419 402 419 q 411 419 414 416 q 418 413 418 406 q 418 400 415 397 q 413 394 404 393 q 403 393 398 391 q 394 390 391 389 q 384 385 377 375 q 371 365 365 350 l 177 -176 q 174 -185 165 -188 q 156 -192 133 -192 q 119 -192 113 -189 q 106 -186 106 -179 q 106 -173 123 -156 q 139 -138 150 -122 q 171 -91 183 -62 q 194 -33 194 -10 q 194 13 177 55 q 175 59 174 62 z"},"@":{"x_min":0,"x_max":986,"ha":986,"o":"m 582 166 q 553 114 515 88 q 476 61 430 61 q 371 61 334 106 q 298 151 298 225 q 298 277 322 329 q 346 381 389 424 q 422 456 459 474 q 497 491 533 491 q 575 491 603 466 q 630 441 641 394 l 668 483 l 732 483 l 649 187 q 644 168 642 157 q 640 146 640 136 q 640 110 653 96 q 666 82 689 82 q 712 82 742 97 q 772 111 798 136 q 843 179 869 243 q 894 307 894 379 q 894 518 799 602 q 705 687 550 687 q 464 687 389 658 q 315 630 257 575 q 192 514 158 431 q 125 348 125 247 q 125 161 152 98 q 180 36 239 -15 q 295 -64 368 -89 q 440 -114 525 -114 q 606 -114 683 -88 q 759 -62 826 -12 l 841 -29 q 769 -82 689 -109 q 608 -136 522 -136 q 430 -136 356 -114 q 282 -91 222 -46 q 148 10 110 89 q 72 167 72 262 q 72 362 114 448 q 156 534 236 600 q 300 654 378 681 q 455 708 544 708 q 712 708 814 617 q 915 525 915 374 q 915 297 887 230 q 858 163 806 115 q 777 88 746 75 q 714 61 682 61 q 635 61 610 87 q 585 114 582 166 z m 534 473 q 507 473 485 458 q 462 443 439 408 q 403 354 382 293 q 361 232 361 185 q 361 138 382 111 q 403 83 438 83 q 471 83 501 105 q 531 126 559 170 q 587 214 604 267 q 620 320 620 365 q 620 412 595 442 q 571 473 534 473 z"},".":{"x_min":0,"x_max":248,"ha":248,"o":"m 71 83 l 111 124 q 114 127 117 129 q 121 131 125 131 q 128 131 132 129 q 136 127 140 123 l 179 81 q 183 76 184 73 q 185 70 185 67 q 185 64 183 60 q 182 57 178 52 l 139 9 q 134 4 130 1 q 127 -1 125 -1 q 121 -1 118 0 q 115 2 111 6 l 68 55 q 66 57 64 61 q 63 64 63 68 q 63 71 65 74 q 67 78 71 83 z"},"p":{"x_min":0,"x_max":493,"ha":493,"o":"m 144 286 l 144 122 q 144 75 177 46 q 211 18 266 18 q 329 18 366 65 q 404 111 404 191 q 404 277 362 331 q 319 384 251 384 q 219 384 190 371 q 162 357 152 339 q 148 332 146 319 q 144 306 144 286 z m 75 -98 l 75 320 q 75 339 68 351 q 61 362 46 366 q 41 367 31 368 q 15 369 15 378 q 15 388 39 396 l 40 396 q 49 398 58 401 q 66 404 75 409 q 88 416 108 430 q 128 444 135 444 q 140 444 142 438 q 144 433 144 421 l 144 365 q 184 400 222 417 q 259 433 297 433 q 368 433 414 378 q 459 322 459 234 q 459 127 399 59 q 340 -10 249 -10 q 223 -10 197 -2 q 171 5 144 21 l 144 -95 q 144 -127 152 -144 q 159 -161 177 -169 q 189 -175 210 -177 q 211 -177 212 -177 q 226 -178 230 -181 q 234 -184 234 -190 q 234 -196 228 -200 q 223 -204 214 -204 q 208 -204 178 -201 q 148 -198 125 -198 q 85 -198 46 -203 q 40 -204 39 -204 q 32 -204 28 -201 q 24 -199 24 -194 q 24 -188 27 -185 q 30 -181 40 -175 q 42 -174 46 -171 q 51 -167 54 -165 q 65 -154 70 -141 q 75 -128 75 -98 z"},"X":{"x_min":0,"x_max":659,"ha":659,"o":"m 145 127 l 285 331 q 288 334 289 339 q 290 344 290 351 q 290 355 289 360 q 287 364 284 369 l 160 561 q 130 607 113 627 q 95 647 75 659 q 67 664 59 667 q 51 669 39 672 q 38 672 36 673 q 17 679 17 688 q 17 693 21 697 q 26 700 34 700 q 35 700 69 698 q 104 695 137 695 q 160 695 190 698 q 221 700 228 700 q 238 700 242 697 q 246 694 246 688 q 246 679 235 676 q 231 675 229 674 q 218 670 212 663 q 206 656 206 647 q 206 638 211 625 q 216 611 226 597 l 331 438 l 332 437 q 340 424 344 424 q 347 424 351 427 q 354 431 359 437 l 470 592 q 482 609 487 621 q 492 632 492 641 q 492 651 487 659 q 481 667 473 670 q 468 671 460 673 q 440 678 440 689 q 440 695 443 698 q 446 701 455 701 q 463 701 490 697 q 517 693 536 693 q 548 693 570 696 q 591 698 601 698 q 616 698 620 696 q 625 693 625 687 q 625 677 608 672 l 608 672 q 604 671 600 669 q 596 668 592 666 q 573 656 557 642 q 542 627 522 600 l 379 399 q 376 395 375 390 q 373 385 373 381 q 373 377 375 373 q 376 369 379 364 l 556 81 q 567 62 583 49 q 599 35 616 28 l 628 25 q 628 25 629 25 q 645 21 645 11 q 645 4 641 1 q 637 -2 627 -2 q 625 -2 596 0 q 566 2 540 2 q 495 2 452 -2 q 445 -3 443 -3 q 436 -3 433 0 q 429 3 429 9 q 429 18 452 28 q 475 38 475 53 q 475 59 470 70 q 465 82 456 96 l 336 287 q 329 298 326 301 q 323 304 321 304 q 317 304 312 300 q 308 295 303 288 l 172 97 q 165 86 161 76 q 157 65 157 54 q 157 45 166 36 q 174 28 187 24 q 192 22 201 21 q 215 20 215 9 q 215 3 210 0 q 206 -3 197 -3 q 192 -3 160 0 q 127 2 99 2 q 78 2 52 -1 q 26 -4 23 -4 q 17 -4 14 -1 q 12 2 12 9 q 12 15 15 18 q 19 21 32 25 q 37 26 41 27 q 45 28 51 31 q 73 40 94 62 q 116 84 145 127 z"},"*":{"x_min":0,"x_max":500,"ha":500,"o":"m 244 524 l 244 532 q 244 567 227 611 q 210 655 210 667 q 210 688 221 701 q 232 714 250 714 q 267 714 279 702 q 290 690 290 671 q 290 657 273 612 q 256 567 256 530 l 256 524 q 294 543 329 591 q 336 601 340 605 q 352 619 364 625 q 377 632 392 632 q 408 632 418 621 q 429 610 429 594 q 429 578 418 566 q 408 555 388 549 q 381 547 363 545 q 303 538 262 513 q 296 492 341 485 q 387 478 390 477 q 407 471 418 458 q 429 446 429 432 q 429 416 417 405 q 406 393 389 393 q 376 393 364 401 q 351 409 338 424 q 335 427 330 435 q 298 479 256 503 l 256 495 q 256 459 273 415 q 290 371 290 359 q 290 338 279 325 q 268 312 250 312 q 233 312 221 324 q 210 337 210 356 q 210 370 227 415 q 244 460 244 497 l 244 503 q 206 483 171 436 q 163 426 160 422 q 148 408 135 401 q 123 394 108 394 q 92 394 82 405 q 71 417 71 433 q 71 449 82 461 q 92 472 112 478 q 119 480 137 482 q 197 489 238 513 q 203 534 158 542 q 112 549 111 549 q 92 555 81 567 q 71 579 71 594 q 71 611 82 622 q 94 633 111 633 q 124 633 136 625 q 149 618 162 603 q 165 600 170 592 q 202 548 244 524 z"},"Y":{"x_min":0,"x_max":602,"ha":602,"o":"m 261 134 l 261 297 q 261 317 258 332 q 254 348 247 358 l 94 603 l 92 606 q 61 656 35 667 q 30 668 21 670 q 19 671 18 671 q 7 672 3 675 q 0 678 0 685 q 0 692 4 696 q 8 699 18 699 q 21 699 53 697 q 84 694 113 694 q 140 694 168 697 q 196 699 196 699 q 203 699 207 696 q 210 693 210 687 q 210 675 198 672 q 194 671 191 670 q 179 666 174 660 q 169 654 169 643 q 169 634 173 624 q 176 614 184 601 l 311 400 q 314 395 316 393 q 318 391 320 391 q 323 391 326 393 q 329 395 331 397 l 441 569 q 452 586 458 603 q 465 620 465 631 q 465 643 457 653 q 448 663 435 667 q 431 668 426 669 q 421 670 413 671 q 399 672 395 675 q 391 679 391 686 q 391 693 395 696 q 399 699 408 699 q 415 699 441 697 q 467 694 486 694 q 521 694 559 698 q 569 699 571 699 q 578 699 581 696 q 584 693 584 686 q 584 675 570 669 q 557 664 553 661 q 544 653 531 635 q 517 617 484 567 l 358 375 l 357 375 q 339 345 339 316 l 339 133 q 339 85 345 67 q 351 50 366 38 q 376 30 397 25 q 398 25 399 25 q 412 22 415 19 q 419 16 419 10 q 419 2 415 -1 q 411 -4 400 -4 q 387 -4 354 -1 q 321 2 301 2 q 256 2 208 -3 q 198 -4 196 -4 q 188 -4 184 0 q 180 3 180 9 q 180 20 203 29 l 204 29 q 216 33 223 36 q 230 40 236 44 q 250 56 256 72 q 261 88 261 134 z"},"c":{"x_min":0,"x_max":442,"ha":442,"o":"m 373 328 q 373 318 371 315 q 370 311 366 311 q 361 311 350 327 q 338 344 328 353 q 307 373 279 385 q 250 396 221 396 q 167 396 136 354 q 105 312 105 237 q 105 148 150 94 q 196 40 271 40 q 325 40 371 69 q 417 97 419 97 q 421 97 422 95 q 423 94 423 91 q 423 83 412 70 q 401 57 383 42 q 348 13 311 0 q 274 -13 229 -13 q 144 -13 89 47 q 33 108 33 200 q 33 297 97 364 q 160 430 253 430 q 283 430 310 425 q 336 420 353 412 q 365 406 369 399 q 373 393 373 375 l 373 370 z"},"!":{"x_min":0,"x_max":328,"ha":328,"o":"m 105 83 l 145 124 q 148 127 152 129 q 156 131 160 131 q 163 131 166 129 q 169 127 174 123 l 214 81 q 217 77 218 74 q 219 71 219 67 q 219 64 218 60 q 216 57 212 52 l 173 9 q 168 4 165 1 q 161 -1 159 -1 q 155 -1 152 0 q 149 2 145 6 l 102 55 q 100 58 98 61 q 97 64 97 68 q 97 71 99 74 q 101 78 105 83 z m 153 208 l 129 643 l 129 649 q 129 666 139 673 q 149 679 175 679 q 196 679 203 673 q 210 667 210 652 l 210 645 l 171 208 z"},"/":{"x_min":0,"x_max":278,"ha":278,"o":"m 45 -93 l 6 -93 l 270 699 l 309 699 z"},"[":{"x_min":0,"x_max":370,"ha":370,"o":"m 313 694 l 313 665 l 244 665 q 225 665 219 657 q 212 650 212 619 l 212 -76 q 212 -107 219 -115 q 225 -122 244 -122 l 313 -122 l 313 -151 l 139 -151 l 139 694 z"},"6":{"x_min":0,"x_max":495,"ha":495,"o":"m 119 241 q 119 147 162 83 q 205 20 266 20 q 325 20 357 63 q 389 106 389 185 q 389 282 346 342 q 303 402 236 402 q 179 402 149 361 q 119 319 119 241 z m 134 382 q 168 413 202 428 q 236 443 273 443 q 354 443 405 383 q 455 322 455 225 q 455 124 395 55 q 335 -14 250 -14 q 158 -14 99 61 q 39 137 39 256 q 39 356 85 451 q 131 545 217 621 q 263 661 320 686 q 376 711 416 711 q 423 711 428 708 q 432 705 432 700 q 432 692 394 681 q 356 669 322 649 q 253 609 207 543 q 161 477 134 382 z"},"r":{"x_min":0,"x_max":338,"ha":338,"o":"m 92 111 l 92 324 q 92 348 80 360 q 68 372 44 372 q 30 372 24 375 q 19 377 19 384 q 19 390 23 393 q 27 396 43 399 q 46 400 51 401 q 74 407 89 413 q 104 419 125 431 q 146 442 152 442 q 158 442 160 438 q 162 434 162 418 l 162 352 q 202 399 222 415 q 243 430 263 430 q 286 430 307 414 q 327 398 327 383 q 327 371 314 356 q 302 342 293 342 q 289 342 268 354 q 248 366 228 366 q 202 366 182 343 q 161 319 161 290 l 161 125 q 161 75 168 58 q 176 40 196 30 q 202 27 209 25 q 216 24 225 24 q 240 23 245 20 q 249 16 249 9 q 249 4 244 0 q 239 -3 232 -3 q 229 -3 197 0 q 165 2 137 2 q 97 2 59 -2 q 53 -3 52 -3 q 47 -3 43 0 q 40 3 40 8 q 40 12 42 15 q 45 18 54 24 q 62 29 67 32 q 71 36 74 40 q 83 52 88 68 q 92 84 92 111 z"},"2":{"x_min":0,"x_max":495,"ha":495,"o":"m 437 106 l 381 10 q 376 2 372 -1 q 367 -4 354 -4 q 351 -4 334 -3 q 255 0 179 0 q 128 0 80 -3 q 72 -4 70 -4 q 61 -4 56 -1 q 51 2 51 8 q 51 12 96 72 q 142 133 183 195 q 245 291 281 382 q 317 473 317 530 q 317 587 289 618 q 261 649 210 649 q 184 649 163 642 q 141 635 116 617 q 106 610 92 595 q 78 581 70 581 q 66 581 64 584 q 62 587 62 592 q 62 601 75 617 q 88 634 111 653 q 141 678 173 690 q 205 701 246 701 q 313 701 352 662 q 391 623 391 556 q 391 513 364 447 q 337 381 285 294 q 251 238 203 167 q 155 97 155 86 q 155 76 170 71 q 185 66 216 66 l 302 66 q 328 66 347 72 q 366 78 385 91 q 397 100 412 117 q 426 135 435 135 q 439 135 442 132 q 444 129 444 123 q 444 121 442 116 q 440 111 437 106 z"},"{":{"x_min":0,"x_max":500,"ha":500,"o":"m 413 740 l 413 716 q 341 715 315 689 q 289 664 289 587 l 289 516 q 289 406 258 366 q 228 325 144 310 q 228 294 258 254 q 289 214 289 104 l 289 33 q 289 -43 315 -69 q 341 -94 413 -95 l 413 -119 l 408 -119 q 303 -119 264 -83 q 225 -48 225 50 l 225 156 q 225 232 196 261 q 167 291 86 297 l 86 324 q 168 332 197 360 q 225 389 225 465 l 225 571 q 225 668 264 704 q 303 740 408 740 z"},"9":{"x_min":0,"x_max":495,"ha":495,"o":"m 374 454 q 374 548 332 612 q 289 675 228 675 q 169 675 136 632 q 104 589 104 511 q 104 415 147 354 q 189 294 257 294 q 314 294 344 335 q 374 376 374 454 z m 360 313 q 326 282 292 267 q 257 252 220 252 q 139 252 89 312 q 38 373 38 470 q 38 571 98 640 q 158 710 244 710 q 335 710 395 634 q 455 558 455 439 q 455 339 409 245 q 363 151 276 75 q 229 35 173 9 q 117 -16 78 -16 q 70 -16 66 -13 q 61 -10 61 -5 q 61 2 99 15 q 137 27 171 47 q 240 87 287 153 q 334 219 360 313 z"}," ":{"x_min":0,"x_max":248,"ha":248,"o":""},"I":{"x_min":0,"x_max":321,"ha":321,"o":"m 121 134 l 121 567 q 121 609 115 627 q 108 645 91 657 q 80 667 56 671 q 56 671 55 671 q 42 673 38 677 q 34 680 34 687 q 34 694 39 697 q 43 700 54 700 q 58 700 91 697 q 125 694 154 694 q 206 694 255 699 q 264 700 265 700 q 272 700 276 696 q 281 692 281 687 q 281 681 277 677 q 272 673 257 669 q 244 665 236 661 q 229 658 223 653 q 210 642 205 626 q 200 611 200 567 l 200 133 q 200 90 207 71 q 214 52 231 39 q 244 29 266 25 q 268 25 268 25 q 281 23 286 20 q 290 16 290 10 q 290 2 286 -1 q 282 -4 269 -4 q 254 -4 218 -1 q 183 2 161 2 q 115 2 68 -3 q 58 -4 56 -4 q 48 -4 44 0 q 40 3 40 9 q 40 20 59 27 q 61 28 61 28 q 71 31 79 36 q 87 40 94 46 q 109 59 115 76 q 121 93 121 134 z"},"H":{"x_min":0,"x_max":771,"ha":771,"o":"m 116 134 l 116 567 q 116 609 109 627 q 102 645 85 657 q 77 663 67 666 q 58 669 47 670 l 47 670 q 25 675 25 685 q 25 693 29 697 q 34 700 46 700 q 52 700 86 697 q 120 694 148 694 q 200 694 248 699 q 256 700 258 700 q 265 700 270 696 q 274 692 274 687 q 274 677 253 669 q 252 668 251 668 q 241 666 232 662 q 224 659 217 653 q 204 642 198 625 q 193 609 193 567 l 193 414 q 193 398 197 394 q 201 389 219 389 l 551 389 q 569 389 574 394 q 578 398 578 414 l 578 566 q 578 608 571 626 q 564 644 547 656 q 540 661 531 664 q 522 667 509 670 l 509 670 q 487 675 487 685 q 487 693 491 696 q 495 699 508 699 q 519 699 556 696 q 593 693 619 693 q 664 693 709 698 q 718 699 720 699 q 727 699 731 695 q 736 691 736 686 q 736 675 713 668 l 713 668 q 703 666 694 662 q 686 659 679 653 q 666 642 660 625 q 655 609 655 567 l 655 133 q 655 91 662 72 q 669 52 687 39 q 700 29 722 25 q 724 25 724 25 q 737 23 741 20 q 746 17 746 10 q 746 2 742 -1 q 738 -4 725 -4 q 710 -4 674 -1 q 638 2 617 2 q 572 2 524 -3 q 514 -4 512 -4 q 505 -4 501 0 q 497 3 497 9 q 497 20 516 27 q 518 28 518 28 q 528 31 536 36 q 544 40 551 46 q 566 59 572 76 q 578 93 578 134 l 578 328 q 578 340 573 344 q 567 349 551 349 l 219 349 q 203 349 198 345 q 193 340 193 328 l 193 133 q 193 91 200 72 q 208 52 225 39 q 238 29 260 25 q 262 25 262 25 q 275 23 280 20 q 284 17 284 10 q 284 2 280 -1 q 276 -4 263 -4 q 248 -4 212 -1 q 176 2 155 2 q 110 2 63 -3 q 53 -4 51 -4 q 43 -4 39 0 q 35 3 35 9 q 35 20 54 27 q 56 28 56 28 q 66 31 74 36 q 83 40 89 46 q 104 59 110 76 q 116 93 116 134 z"},"4":{"x_min":0,"x_max":495,"ha":495,"o":"m 293 214 l 56 214 q 39 214 30 218 q 21 223 21 231 q 21 242 33 264 q 45 287 75 330 l 212 531 q 267 612 305 660 q 344 708 353 708 q 356 708 358 706 q 360 703 360 699 l 360 276 q 362 276 366 276 q 416 278 422 287 q 425 291 430 298 q 441 315 449 315 q 454 315 457 311 q 459 306 459 297 q 459 258 446 235 q 433 212 411 212 q 407 212 397 213 q 387 214 382 214 l 360 214 l 360 26 q 360 2 362 -24 q 363 -31 363 -33 q 363 -50 343 -61 q 324 -72 294 -72 q 288 -72 285 -70 q 283 -67 283 -61 q 283 -60 284 -53 q 293 9 293 99 z m 293 276 l 293 583 q 244 520 193 444 q 142 369 86 276 z"},"~":{"x_min":0,"x_max":833,"ha":833,"o":"m 747 366 l 747 311 q 697 276 650 259 q 604 241 558 241 q 510 241 431 269 q 421 272 417 274 l 409 277 q 323 308 276 308 q 235 308 190 290 q 146 271 87 230 l 87 285 q 139 321 186 338 q 232 356 276 356 q 327 356 409 326 q 414 324 417 323 q 422 321 433 317 q 514 288 558 288 q 600 288 645 307 q 689 325 747 366 z"},"D":{"x_min":0,"x_max":741,"ha":741,"o":"m 195 107 q 195 89 197 80 q 200 71 205 67 q 224 53 266 43 q 308 33 354 33 q 488 33 561 108 q 634 184 634 323 q 634 483 541 578 q 449 672 291 672 q 232 672 213 660 q 195 647 195 608 z m 116 116 l 116 585 q 116 622 109 637 q 102 652 84 663 q 75 668 57 672 q 55 673 54 673 q 41 675 37 678 q 33 681 33 687 q 33 692 39 696 q 45 699 54 699 q 55 699 88 697 q 121 695 153 695 q 178 695 235 697 q 292 699 323 699 q 503 699 605 609 q 708 518 708 359 q 708 195 604 96 q 499 -2 323 -2 q 275 -2 218 1 q 161 4 152 4 q 122 4 92 -2 q 62 -8 62 -8 q 55 -8 50 -4 q 44 0 44 5 q 44 12 49 16 q 54 21 68 25 q 70 26 74 27 q 87 33 93 38 q 105 49 111 65 q 116 82 116 116 z"},"^":{"x_min":0,"x_max":1000,"ha":1000,"o":"m 459 714 l 540 714 l 797 438 l 754 438 l 499 658 l 243 438 l 201 438 z"},"0":{"x_min":0,"x_max":495,"ha":495,"o":"m 86 388 q 86 240 139 142 q 191 44 266 44 q 331 44 375 117 q 419 191 419 303 q 419 369 403 433 q 387 497 357 549 q 331 595 297 620 q 263 645 227 645 q 166 645 126 574 q 86 502 86 388 z m 32 315 q 32 379 42 435 q 53 491 74 541 q 107 619 154 659 q 202 700 259 700 q 354 700 409 612 q 464 524 464 373 q 464 204 397 95 q 331 -14 232 -14 q 140 -14 86 74 q 32 163 32 315 z"},"F":{"x_min":0,"x_max":527,"ha":527,"o":"m 115 134 l 115 567 q 115 609 109 627 q 102 645 86 657 q 79 662 71 665 q 63 668 50 671 q 38 673 34 676 q 30 679 30 685 q 30 694 34 697 q 38 700 49 700 q 51 700 62 699 q 140 694 225 694 l 272 694 q 333 694 402 698 q 470 703 477 703 q 487 703 491 699 q 494 695 494 684 q 494 682 494 678 q 493 673 493 670 l 486 588 q 485 576 482 572 q 479 567 473 567 q 467 567 464 572 q 461 576 461 585 q 461 587 461 591 q 462 595 462 596 q 462 633 436 647 q 410 662 340 662 l 270 662 q 221 662 207 654 q 193 646 193 622 l 193 416 q 193 389 199 384 q 205 378 227 378 l 309 378 q 355 378 376 385 q 397 393 409 410 q 414 417 420 437 q 426 456 436 456 q 442 456 444 452 q 446 448 446 433 q 446 425 444 393 q 442 362 442 339 q 442 317 445 296 q 448 274 448 273 q 448 264 444 258 q 440 252 434 252 q 422 252 418 276 q 416 293 413 301 q 405 322 384 330 q 363 339 317 339 l 222 339 q 204 339 198 333 q 193 328 193 306 l 193 133 q 193 90 200 71 q 207 52 224 39 q 237 29 259 25 q 261 25 261 25 q 274 23 279 20 q 283 17 283 10 q 283 2 279 -1 q 275 -4 262 -4 q 248 -4 211 -1 q 174 2 151 2 q 113 2 72 -3 q 64 -4 62 -4 q 55 -4 52 0 q 48 3 48 10 q 48 15 51 19 q 55 22 66 28 q 74 31 81 36 q 87 40 93 46 q 105 60 110 78 q 115 96 115 134 z"},"`":{"x_min":0,"x_max":500,"ha":500,"o":"m 336 478 l 303 478 l 142 578 q 127 588 119 598 q 112 607 112 618 q 112 633 122 643 q 132 653 148 653 q 158 653 168 647 q 178 641 195 624 z"},"k":{"x_min":0,"x_max":501,"ha":501,"o":"m 91 111 l 91 590 q 91 642 82 656 q 73 670 49 670 l 41 670 q 33 670 28 673 q 22 676 22 682 q 22 693 47 699 l 48 699 q 60 701 70 704 q 80 707 90 711 q 107 718 127 730 q 148 742 154 742 q 160 742 164 737 q 167 732 167 723 q 167 721 167 713 q 166 705 166 699 q 164 664 162 631 q 161 597 161 562 l 161 217 l 303 346 q 312 355 318 364 q 323 372 323 379 q 323 387 306 392 q 304 393 303 393 q 291 396 286 399 q 281 402 281 408 q 281 413 287 416 q 292 419 301 419 q 303 419 327 416 q 351 413 373 413 q 392 413 415 416 q 439 419 444 419 q 453 419 458 416 q 462 413 462 407 q 462 396 445 393 l 445 393 q 438 392 430 390 q 423 388 415 385 q 368 366 332 331 q 328 327 326 325 l 241 249 q 310 153 352 104 q 394 55 418 40 q 438 29 468 24 q 470 24 471 24 q 485 23 490 20 q 494 18 494 11 q 494 4 488 1 q 481 -2 462 -2 l 379 -2 q 347 -2 247 128 q 211 175 189 203 l 161 177 l 161 110 q 161 66 168 52 q 175 39 194 30 q 202 26 218 24 l 219 24 q 233 23 237 20 q 241 16 241 9 q 241 3 237 0 q 232 -3 225 -3 q 223 -3 194 0 q 164 2 137 2 q 97 2 60 -2 q 54 -3 53 -3 q 48 -3 44 0 q 41 3 41 8 q 41 13 44 17 q 48 21 59 27 q 61 28 64 30 q 72 35 76 39 q 84 48 88 61 q 91 74 91 111 z"},"u":{"x_min":0,"x_max":517,"ha":517,"o":"m 360 59 q 332 25 297 9 q 263 -8 219 -8 q 150 -8 117 31 q 85 70 85 154 l 85 334 q 85 357 81 367 q 77 376 66 381 q 61 383 49 386 q 32 389 32 398 q 32 409 56 410 q 60 410 62 410 q 104 413 139 419 q 145 420 146 420 q 152 420 155 416 q 158 411 158 402 q 158 395 158 390 q 158 386 157 381 q 157 377 156 370 q 154 332 154 305 l 154 160 q 154 92 178 60 q 203 27 253 27 q 299 27 330 56 q 361 86 361 131 l 361 328 q 361 356 357 366 q 354 375 343 380 q 338 382 322 383 q 306 385 306 395 q 306 402 312 406 q 318 409 331 409 l 344 409 q 368 409 394 415 q 420 420 423 420 q 429 420 432 416 q 434 412 434 402 q 434 395 434 390 q 434 386 433 381 q 432 363 432 344 q 431 325 431 305 l 431 78 q 431 49 436 42 q 441 34 456 31 q 462 30 474 29 q 493 28 493 19 q 493 13 489 10 q 484 7 471 6 l 390 0 l 380 0 q 368 0 364 5 q 360 11 360 29 z"},"]":{"x_min":0,"x_max":370,"ha":370,"o":"m 57 -152 l 57 -122 l 127 -122 q 145 -122 152 -115 q 158 -108 158 -76 l 158 619 q 158 650 152 657 q 146 664 127 664 l 57 664 l 57 694 l 231 694 l 231 -152 z"},"U":{"x_min":0,"x_max":733,"ha":733,"o":"m 97 567 q 97 610 91 628 q 84 645 69 657 q 58 667 36 671 q 36 671 35 671 q 22 673 19 677 q 15 680 15 687 q 15 694 19 697 q 23 699 34 699 q 38 699 70 697 q 102 694 129 694 q 175 694 220 698 q 228 699 229 699 q 236 699 240 696 q 243 693 243 688 q 243 681 239 677 q 234 673 221 671 q 219 670 215 668 q 199 662 193 656 q 183 646 179 626 q 175 606 175 567 l 175 322 q 175 220 183 178 q 190 136 209 106 q 233 67 278 47 q 322 26 379 26 q 440 26 484 44 q 527 62 556 100 q 578 129 588 171 q 597 213 597 314 l 597 327 l 597 567 q 597 608 591 626 q 584 645 567 657 q 560 662 551 665 q 542 668 529 671 q 516 673 511 676 q 507 679 507 685 q 507 693 511 696 q 515 699 528 699 q 539 699 565 697 q 592 694 609 694 q 641 694 679 698 q 690 699 693 699 q 700 699 703 696 q 706 693 706 688 q 706 681 702 677 q 699 672 685 668 q 675 664 669 661 q 664 657 659 653 q 648 642 644 625 q 639 608 639 567 l 639 345 q 639 219 627 167 q 614 115 585 78 q 548 32 494 8 q 440 -16 371 -16 q 299 -16 245 3 q 191 23 157 62 q 125 99 111 149 q 97 200 97 312 z"},"o":{"x_min":0,"x_max":493,"ha":493,"o":"m 28 207 q 28 301 94 367 q 159 433 253 433 q 346 433 406 372 q 465 311 465 214 q 465 117 400 51 q 335 -15 241 -15 q 148 -15 88 47 q 28 110 28 207 z m 98 234 q 98 134 142 71 q 186 8 254 8 q 320 8 357 55 q 394 103 394 188 q 394 286 350 349 q 307 412 241 412 q 176 412 137 364 q 98 316 98 234 z"},"N":{"x_min":0,"x_max":759,"ha":759,"o":"m 109 166 l 117 426 q 118 436 118 446 q 118 457 118 477 q 118 545 108 583 q 98 620 75 643 q 59 659 31 668 q 3 676 3 687 q 3 693 7 696 q 10 699 21 699 q 23 699 38 698 q 53 697 64 697 l 91 697 q 105 697 111 694 q 116 692 122 685 l 599 150 q 604 145 606 144 q 608 142 610 142 q 611 142 612 146 q 613 150 613 159 l 613 500 q 613 576 605 608 q 597 640 577 653 q 561 663 533 670 q 505 676 505 686 q 505 691 508 695 q 512 699 516 699 q 519 699 546 695 q 572 691 597 691 q 625 691 657 695 q 690 699 694 699 q 703 699 708 696 q 713 692 713 687 q 713 682 710 678 q 708 675 698 672 q 698 672 697 671 q 685 667 678 662 q 665 650 658 626 q 651 603 651 567 l 651 17 q 651 1 648 -4 q 646 -9 639 -9 q 636 -9 631 -6 q 627 -3 621 4 l 173 511 q 169 515 166 518 q 163 521 162 521 q 160 521 158 518 q 156 515 156 510 l 147 157 q 147 149 146 136 q 146 123 146 117 q 146 76 155 58 q 163 41 186 29 q 196 24 214 22 l 215 22 q 227 21 230 18 q 234 16 234 10 q 234 2 230 0 q 226 -3 211 -3 q 203 -3 165 0 q 126 2 97 2 q 80 2 60 0 q 39 -3 36 -3 q 29 -3 26 0 q 23 2 23 7 q 23 19 42 26 l 43 26 q 44 26 44 26 q 59 31 66 35 q 106 60 109 162 q 109 165 109 166 z"},"+":{"x_min":0,"x_max":833,"ha":833,"o":"m 393 596 l 441 596 l 441 322 l 709 322 l 709 274 l 441 274 l 441 0 l 393 0 l 393 274 l 124 274 l 124 322 l 393 322 z"},"G":{"x_min":0,"x_max":722,"ha":722,"o":"m 575 160 l 575 279 q 575 301 567 313 q 560 325 541 334 q 534 337 522 339 q 521 339 521 339 q 507 341 503 345 q 499 348 499 354 q 499 362 503 365 q 507 368 519 368 q 522 368 557 365 q 591 362 622 362 q 646 362 677 365 q 683 366 686 366 q 687 366 689 367 q 694 368 695 368 q 700 368 703 365 q 705 362 705 357 q 705 351 703 347 q 700 344 691 339 q 687 338 684 336 q 681 335 678 333 q 667 325 663 313 q 658 301 658 281 l 658 126 q 658 124 659 117 q 659 110 659 105 q 659 87 635 77 q 623 71 615 67 l 604 61 q 471 -15 362 -15 q 210 -15 120 81 q 29 177 29 337 q 29 419 55 490 q 82 560 133 614 q 180 663 240 687 q 299 710 377 710 q 424 710 469 700 q 513 690 556 671 q 568 666 589 654 q 610 642 618 642 q 622 642 630 646 q 638 651 641 651 q 646 651 648 646 q 650 642 651 631 l 661 527 q 662 522 662 518 q 662 514 662 506 q 662 497 660 493 q 657 490 651 490 q 641 490 627 521 q 613 553 597 574 q 559 624 498 654 q 438 683 373 683 q 258 683 184 598 q 110 512 110 378 q 110 222 189 120 q 268 19 388 19 q 427 19 467 32 q 506 44 537 67 q 557 82 566 103 q 575 125 575 160 z"},"q":{"x_min":0,"x_max":500,"ha":500,"o":"m 360 138 l 360 304 q 360 352 325 382 q 290 411 235 411 q 171 411 130 359 q 88 308 88 228 q 88 145 133 93 q 177 40 248 40 q 282 40 312 53 q 341 66 352 85 q 356 92 358 104 q 360 115 360 138 z m 360 58 q 318 23 279 7 q 240 -10 200 -10 q 125 -10 78 46 q 30 101 30 189 q 30 296 92 365 q 154 433 251 433 q 295 433 337 414 q 378 394 380 394 q 383 394 387 396 q 391 399 393 402 l 414 434 q 416 438 418 439 q 421 441 424 441 q 429 441 431 438 q 433 436 433 429 q 433 427 433 419 q 430 359 430 292 l 430 -95 q 430 -133 435 -147 q 440 -161 453 -169 q 460 -175 476 -177 q 477 -177 477 -177 q 488 -178 491 -181 q 494 -184 494 -190 q 494 -196 490 -200 q 485 -203 478 -203 q 473 -203 449 -201 q 426 -198 407 -198 q 370 -198 332 -203 q 325 -204 323 -204 q 316 -204 312 -201 q 308 -198 308 -193 q 308 -187 312 -183 q 317 -179 328 -177 q 330 -176 335 -174 q 341 -171 344 -169 q 353 -162 356 -148 q 360 -135 360 -98 z"},"d":{"x_min":0,"x_max":508,"ha":508,"o":"m 353 131 l 353 301 q 353 324 346 338 q 340 352 325 365 q 304 384 276 394 q 247 405 218 405 q 162 405 125 356 q 89 308 89 231 q 89 149 136 90 q 184 31 248 31 q 295 31 324 58 q 353 85 353 131 z m 353 59 q 321 22 283 4 q 246 -14 200 -14 q 127 -14 79 44 q 31 103 31 192 q 31 291 92 360 q 154 429 238 429 q 267 429 296 419 q 325 410 354 391 l 354 590 q 354 638 345 654 q 336 670 312 670 l 302 670 q 291 670 285 674 q 279 677 279 684 q 279 691 302 697 l 304 697 q 316 699 328 702 q 341 706 353 711 q 370 718 391 730 q 411 742 417 742 q 423 742 426 738 q 429 733 429 725 q 429 724 428 713 q 424 642 424 562 l 424 117 q 424 65 432 51 q 441 37 464 37 l 472 37 q 480 37 486 34 q 491 31 491 25 q 491 13 458 9 q 449 8 444 7 q 417 3 391 -5 q 365 -12 364 -12 q 358 -12 356 -7 q 353 -2 353 6 z"},"1":{"x_min":0,"x_max":495,"ha":495,"o":"m 218 152 l 218 531 q 218 575 209 589 q 201 604 178 604 q 163 604 146 597 q 128 590 126 590 q 120 590 116 592 q 113 595 113 599 q 113 611 152 625 q 186 637 207 647 q 238 662 263 681 q 289 700 291 700 q 294 700 296 697 q 298 693 298 687 q 298 684 296 671 q 289 605 289 540 l 289 149 q 289 67 309 45 q 330 22 381 22 q 392 22 396 20 q 399 17 399 11 q 399 4 394 0 q 390 -3 381 -3 q 376 -3 335 0 q 294 3 257 3 q 223 3 185 0 q 148 -3 145 -3 q 135 -3 130 1 q 124 4 124 10 q 124 21 149 24 l 150 24 q 152 24 159 25 q 179 28 191 33 q 206 40 212 59 q 218 78 218 139 z"},"5":{"x_min":0,"x_max":495,"ha":495,"o":"m 135 454 q 158 459 175 461 q 193 464 208 464 q 308 464 362 409 q 417 355 417 256 q 417 199 397 151 q 377 102 338 61 q 301 23 255 5 q 210 -14 155 -14 q 105 -14 66 0 q 28 14 28 28 q 28 32 31 34 q 33 37 38 37 q 40 37 49 34 q 91 17 136 17 q 227 17 285 78 q 343 139 343 232 q 343 310 300 354 q 257 397 179 397 q 159 397 136 392 q 113 387 111 387 q 100 387 96 390 q 93 394 93 403 q 93 408 94 416 q 95 423 97 433 l 139 651 q 143 673 152 680 q 160 687 189 687 l 334 687 q 371 687 390 705 q 410 722 412 722 q 415 722 417 720 q 419 717 419 713 q 419 710 418 707 q 417 703 414 695 l 390 639 q 384 625 373 619 q 362 614 331 614 l 324 614 l 205 614 q 181 614 172 607 q 163 600 159 581 z"}}}
